<svg width="830" height="47" viewBox="0 0 830 47" fill="none" xmlns="http://www.w3.org/2000/svg">
<mask id="path-1-inside-1_48_562" fill="white">
<path d="M0 0H830V46.8507H0V0Z"/>
</mask>
<path d="M830 45.8507H0V47.8507H830V45.8507Z" fill="#D0D7DE" mask="url(#path-1-inside-1_48_562)"/>
<path d="M11.0427 10.994C9.87934 10.994 8.82385 11.1869 7.87626 11.5681C6.92398 11.9493 6.11243 12.4811 5.4463 13.1635C4.77548 13.8459 4.25947 14.6459 3.89826 15.5589C3.53705 16.4719 3.35879 17.4696 3.35879 18.5567C3.35879 19.6439 3.5605 20.6463 3.95924 21.5687C4.35798 22.4911 4.90683 23.2958 5.59642 23.9782C6.286 24.6606 7.09755 25.1924 8.02638 25.5736C8.9552 25.9548 9.96378 26.1478 11.0427 26.1478C11.9434 26.1478 12.7315 26.0584 13.4164 25.8748C14.0966 25.696 14.6924 25.4701 15.2037 25.1971C15.715 24.9242 16.1372 24.6277 16.4796 24.3077C16.8221 23.9877 17.0989 23.6959 17.3193 23.4323V27.2255C16.5594 27.8702 15.6071 28.3408 14.4672 28.642C13.3273 28.9432 12.117 29.0938 10.8363 29.0938C9.21321 29.0938 7.74022 28.8162 6.40797 28.2655C5.07571 27.7149 3.93579 26.9619 2.9835 26.0066C2.03122 25.0512 1.29473 23.9359 0.778713 22.6464C0.258007 21.3616 0 19.9968 0 18.552C0 17.1073 0.258007 15.7425 0.778713 14.4577C1.29942 13.1729 2.03591 12.0528 2.9835 11.0975C3.93579 10.1421 5.07571 9.38916 6.40797 8.83854C7.74022 8.28792 9.21321 8.01025 10.8363 8.01025C12.4594 8.01025 13.8996 8.21262 14.9785 8.61264C16.0574 9.01266 16.8408 9.43622 17.3193 9.8786V13.7047C17.2396 13.5823 17.0426 13.3753 16.733 13.0741C16.4233 12.7729 16.0012 12.467 15.4711 12.1564C14.941 11.8458 14.3077 11.5728 13.5806 11.3422C12.8488 11.1116 12.0044 10.994 11.0427 10.994Z" fill="#191744"/>
<path d="M38.5745 8.28125L30.1682 20.7196V28.8236H26.9548V20.7526L18.5485 8.28125H22.3623L28.5779 17.4677L34.7607 8.28125H38.5745Z" fill="#191744"/>
<path d="M56.7664 17.1957V26.1421C56.0064 26.9845 54.9838 27.6904 53.7031 28.2504C52.4225 28.8105 50.8791 29.0929 49.0778 29.0929C47.2764 29.0929 45.8081 28.8152 44.4383 28.2646C43.0685 27.7139 41.9051 26.961 40.9576 26.0056C40.0053 25.0503 39.2782 23.9349 38.7668 22.6454C38.2555 21.3606 38.0022 19.9959 38.0022 18.5511C38.0022 17.1063 38.2602 15.7415 38.7809 14.4567C39.3016 13.1719 40.0381 12.0519 40.9857 11.0965C41.938 10.1412 43.0873 9.38818 44.4383 8.83756C45.7893 8.28694 47.2858 8.00928 48.9276 8.00928C50.4475 8.00928 51.7657 8.20694 52.8775 8.59755C53.9893 8.98816 54.8055 9.41642 55.3262 9.87762V13.7037C55.1245 13.4449 54.8384 13.1531 54.4725 12.8284C54.1019 12.5084 53.6515 12.2119 53.1214 11.9389C52.5913 11.666 51.9909 11.4401 51.3201 11.2612C50.6493 11.0824 49.9034 10.9883 49.0824 10.9883C47.9003 10.9883 46.8354 11.1812 45.8832 11.5624C44.9309 11.9436 44.1193 12.4754 43.4532 13.1578C42.7824 13.8402 42.2664 14.6403 41.9051 15.5532C41.5439 16.4662 41.3657 17.4639 41.3657 18.5511C41.3657 19.6382 41.5439 20.6406 41.9051 21.563C42.2664 22.4854 42.7824 23.2902 43.4532 23.9726C44.124 24.6549 44.9356 25.1867 45.8832 25.5679C46.8354 25.9491 47.8909 26.1421 49.0496 26.1421C49.6313 26.1421 50.1473 26.1092 50.5977 26.0386C51.048 25.968 51.4467 25.8738 51.7986 25.7515C52.1504 25.6291 52.4647 25.5021 52.7462 25.3609C53.0276 25.2197 53.295 25.0785 53.5577 24.9373V20.1794H47.1638V17.1957H56.7711H56.7664Z" fill="#191744"/>
<path d="M60.0923 28.8189V8.28125H63.3338V28.8236H60.0923V28.8189Z" fill="#191744"/>
<path d="M91.8772 11.2602V18.2489C92.3369 17.9053 92.8295 17.6041 93.3502 17.3453C93.8709 17.0865 94.4573 16.8606 95.1046 16.6676C95.7567 16.4747 96.4744 16.3335 97.2672 16.2299C98.06 16.1311 98.9419 16.0793 99.9223 16.0793H101.395V19.0019H99.9223C98.9419 19.0019 97.999 19.0866 97.0983 19.256C96.1976 19.4254 95.3908 19.6701 94.6824 19.9808C93.9694 20.2914 93.3689 20.6773 92.8811 21.1385C92.3885 21.5997 92.0554 22.1315 91.8772 22.7339V25.8682H102.864V28.8189H88.631V8.28125H102.864V11.265H91.8772V11.2602Z" fill="#191744"/>
<path d="M112.794 17.0735C114.197 17.5347 115.356 17.9865 116.275 18.4288C117.195 18.8712 117.931 19.3324 118.48 19.8125C119.029 20.2925 119.418 20.8102 119.653 21.3655C119.883 21.9161 120 22.5373 120 23.2197C120 24.3021 119.761 25.2198 119.277 25.9587C118.799 26.7023 118.175 27.3094 117.415 27.78C116.655 28.2506 115.801 28.5894 114.863 28.7871C113.92 28.9895 112.991 29.0883 112.072 29.0883C110.749 29.0883 109.501 28.9142 108.319 28.5612C107.137 28.2082 106.208 27.8035 105.528 27.3423V23.968C106.086 24.368 106.72 24.721 107.419 25.0222C108 25.3045 108.69 25.554 109.492 25.7752C110.294 25.9963 111.153 26.1046 112.072 26.1046C112.25 26.1046 112.588 26.0905 113.076 26.0575C113.564 26.0293 114.075 25.9257 114.605 25.7563C115.135 25.5869 115.6 25.3281 116.003 24.9892C116.402 24.6457 116.604 24.1751 116.604 23.5727C116.604 23.0926 116.51 22.6785 116.317 22.3397C116.125 21.9961 115.844 21.6949 115.464 21.4361C115.084 21.1772 114.596 20.9278 114.009 20.6972C113.418 20.4666 112.715 20.2219 111.894 19.9583C110.571 19.5348 109.478 19.0971 108.605 18.6312C107.733 18.1653 107.043 17.69 106.532 17.1864C106.021 16.6829 105.659 16.1464 105.453 15.5769C105.242 15.0028 105.139 14.3863 105.139 13.7227C105.139 13.5439 105.162 13.2756 105.214 12.9226C105.265 12.5697 105.378 12.1838 105.561 11.7649C105.739 11.3414 105.997 10.9131 106.326 10.4707C106.654 10.0284 107.1 9.62362 107.662 9.25184C108.221 8.88005 108.92 8.57886 109.75 8.34826C110.58 8.11765 111.575 8 112.738 8C113.32 8 113.916 8.04236 114.525 8.12236C115.135 8.20236 115.726 8.3059 116.299 8.43767C116.871 8.56944 117.396 8.72475 117.875 8.90358C118.353 9.08242 118.747 9.27537 119.048 9.47773V12.7626C119.005 12.7014 118.818 12.5697 118.475 12.372C118.133 12.1697 117.683 11.972 117.124 11.7696C116.566 11.5673 115.909 11.3884 115.159 11.2284C114.408 11.0684 113.611 10.9884 112.771 10.9884C111.87 10.9884 111.143 11.0778 110.594 11.2614C110.046 11.4402 109.614 11.6755 109.304 11.9532C108.995 12.2355 108.788 12.532 108.69 12.8426C108.591 13.1532 108.54 13.4497 108.54 13.7321C108.54 13.9533 108.573 14.1933 108.643 14.4568C108.713 14.7204 108.892 14.9886 109.182 15.271C109.473 15.5534 109.905 15.8452 110.472 16.1464C111.045 16.4476 111.819 16.7582 112.799 17.0782L112.794 17.0735Z" fill="#191744"/>
<path d="M83.8325 8.00928C83.1992 8.03281 82.5706 8.10811 81.9467 8.23988C81.3181 8.37165 80.6614 8.57872 79.9671 8.86109C79.2775 9.13875 78.5551 9.51054 77.8045 9.96704C77.2697 10.2918 76.7115 10.673 76.1298 11.1059C75.5434 10.673 74.9852 10.2918 74.4504 9.96704C73.6999 9.51054 72.9774 9.13875 72.2879 8.86109C71.5983 8.57872 70.9368 8.37165 70.3129 8.23988C69.6843 8.10811 69.0557 8.03281 68.4271 8.00928L66.0535 11.0495L66.213 11.4401L74.4739 28.8105H77.7201L86.042 11.4354L86.2015 11.0495L83.8325 8.00928ZM76.0923 24.7773L69.5905 11.4118C69.5905 11.4118 69.6421 11.4259 69.6656 11.4307C70.4865 11.6471 71.3497 11.9954 72.2409 12.466C73.1369 12.9366 74.0048 13.5061 74.8492 14.179L76.1204 15.1862H76.1251L77.3964 14.179C78.2408 13.5061 79.1133 12.9366 80.0046 12.466C80.9006 11.9954 81.7591 11.6471 82.5847 11.4307C82.6082 11.4307 82.6363 11.4165 82.6598 11.4118L76.0923 24.7773Z" fill="url(#paint0_linear_48_562)"/>
<path d="M60.5121 34.4902H61.3471C61.4973 34.4902 61.6333 34.5044 61.7553 34.5373C61.8772 34.5702 61.9804 34.6173 62.0696 34.6832C62.1587 34.7491 62.2244 34.8291 62.2713 34.9279C62.3182 35.0267 62.3416 35.1444 62.3416 35.2762C62.3416 35.4079 62.3182 35.5256 62.2713 35.6244C62.2244 35.7232 62.154 35.808 62.0649 35.8738C61.9757 35.9397 61.8725 35.9915 61.7459 36.0244C61.6239 36.0574 61.4832 36.0762 61.3331 36.0762H60.8077V37.4551H60.5074V34.4902H60.5121ZM60.8124 35.8221H61.3237C61.5582 35.8221 61.7412 35.775 61.8632 35.6856C61.9851 35.5962 62.0461 35.4597 62.0461 35.2856C62.0461 35.1114 61.9804 34.9656 61.8538 34.8808C61.7271 34.7961 61.5489 34.7538 61.3237 34.7538H60.8124V35.8268V35.8221Z" fill="#191744"/>
<path d="M66.1037 35.9731C66.1037 36.199 66.0662 36.4061 65.9864 36.599C65.9067 36.7873 65.7988 36.952 65.6627 37.0932C65.5267 37.2343 65.3625 37.3379 65.1749 37.4179C64.9872 37.4932 64.7808 37.5355 64.565 37.5355C64.3492 37.5355 64.1428 37.4979 63.9552 37.4179C63.7676 37.3379 63.6034 37.2296 63.4673 37.0932C63.3313 36.9567 63.2234 36.792 63.1436 36.599C63.0639 36.4061 63.0264 36.199 63.0264 35.9731C63.0264 35.7472 63.0639 35.5401 63.1436 35.3472C63.2234 35.1542 63.3313 34.9942 63.4673 34.853C63.6034 34.7118 63.7676 34.6083 63.9552 34.5283C64.1428 34.453 64.3492 34.4106 64.565 34.4106C64.7808 34.4106 64.9872 34.4483 65.1749 34.5283C65.3625 34.6083 65.5267 34.7165 65.6627 34.853C65.7988 34.9895 65.9067 35.1542 65.9864 35.3472C66.0615 35.5354 66.1037 35.7472 66.1037 35.9731ZM65.7847 35.9731C65.7847 35.799 65.7566 35.6342 65.7003 35.4789C65.644 35.3236 65.5642 35.1872 65.4563 35.0695C65.3484 34.9519 65.2218 34.8577 65.0717 34.7871C64.9215 34.7165 64.748 34.6836 64.5603 34.6836C64.3727 34.6836 64.1991 34.7165 64.049 34.7871C63.8989 34.8577 63.7676 34.9519 63.6643 35.0695C63.5565 35.1872 63.4767 35.3236 63.4204 35.4789C63.3641 35.6342 63.336 35.799 63.336 35.9731C63.336 36.1472 63.3641 36.3119 63.4204 36.4672C63.4767 36.6225 63.5565 36.759 63.6643 36.8767C63.7722 36.9943 63.8989 37.0884 64.049 37.1543C64.1991 37.2249 64.3727 37.2579 64.5603 37.2579C64.748 37.2579 64.9215 37.2249 65.0717 37.1543C65.2218 37.0837 65.3531 36.9896 65.4563 36.8767C65.5642 36.759 65.644 36.6225 65.7003 36.4672C65.7566 36.3119 65.7847 36.1472 65.7847 35.9731Z" fill="#191744"/>
<path d="M67.6941 37.041H67.7034L68.4446 34.4902H68.8011L69.5376 37.041H69.547L70.2694 34.4902H70.5884L69.7159 37.4551H69.3641L68.6229 34.9091H68.6135L67.8723 37.4551H67.5205L66.6479 34.4902H66.9622L67.6941 37.041Z" fill="#191744"/>
<path d="M71.5877 37.1869H73.1686V37.4551H71.2875V34.4902H73.117V34.7585H71.5877V35.775H73.0185V36.0433H71.5877V37.1869Z" fill="#191744"/>
<path d="M74.3085 37.4551H74.0083V34.4902H74.8761C75.0216 34.4902 75.1529 34.5044 75.2796 34.5326C75.4062 34.5608 75.5094 34.6079 75.5986 34.6691C75.6877 34.7302 75.7581 34.815 75.8097 34.9138C75.8613 35.0126 75.8847 35.135 75.8847 35.2809C75.8847 35.3891 75.866 35.4879 75.8284 35.5774C75.7909 35.6668 75.7346 35.7421 75.6689 35.808C75.6033 35.8738 75.5235 35.9256 75.4297 35.9633C75.3359 36.0009 75.2374 36.0291 75.1295 36.0386L75.9926 37.4504H75.6267L74.8105 36.0668H74.3085V37.4504V37.4551ZM74.3085 35.808H74.8292C75.0732 35.808 75.2561 35.7656 75.3875 35.6762C75.5188 35.5868 75.5845 35.455 75.5845 35.2809C75.5845 35.182 75.5657 35.102 75.5282 35.0361C75.4907 34.9703 75.4438 34.9138 75.3781 34.8714C75.3124 34.8291 75.2374 34.8008 75.1435 34.7773C75.0497 34.7538 74.9512 34.7491 74.8386 34.7491H74.3038V35.808H74.3085Z" fill="#191744"/>
<path d="M77.0576 37.1869H78.6384V37.4551H76.7573V34.4902H78.5868V34.7585H77.0576V35.775H78.4883V36.0433H77.0576V37.1869Z" fill="#191744"/>
<path d="M79.478 34.4902H80.4585C80.6414 34.4902 80.8244 34.5185 81.012 34.5844C81.195 34.6455 81.3638 34.7397 81.5139 34.862C81.6641 34.9844 81.7813 35.1397 81.8752 35.3279C81.969 35.5162 82.0112 35.728 82.0112 35.9727C82.0112 36.2174 81.9643 36.4386 81.8752 36.6221C81.7813 36.8057 81.6641 36.961 81.5139 37.0833C81.3638 37.2057 81.1996 37.2998 81.012 37.361C80.8291 37.4222 80.6414 37.4551 80.4585 37.4551H79.478V34.4902ZM79.7783 37.1869H80.374C80.5945 37.1869 80.7915 37.1539 80.9557 37.0833C81.1199 37.0127 81.2606 36.9233 81.3685 36.8104C81.4764 36.6974 81.5562 36.5704 81.6125 36.4245C81.6687 36.2786 81.6922 36.128 81.6922 35.9774C81.6922 35.8268 81.6641 35.6762 81.6125 35.5303C81.5562 35.3844 81.4764 35.2573 81.3685 35.1444C81.2606 35.0314 81.1246 34.9373 80.9557 34.8714C80.7915 34.8008 80.5945 34.7679 80.374 34.7679H79.7783V37.1963V37.1869Z" fill="#191744"/>
<path d="M84.183 34.4902H85.0649C85.1775 34.4902 85.2901 34.5044 85.4027 34.5232C85.5152 34.5467 85.6184 34.5891 85.7076 34.6455C85.7967 34.702 85.8718 34.782 85.9281 34.8761C85.9843 34.9703 86.0125 35.0973 86.0125 35.2432C86.0125 35.3985 85.9656 35.535 85.8718 35.6527C85.7779 35.7703 85.6513 35.8456 85.4918 35.8833V35.8927C85.6841 35.9162 85.8436 35.9915 85.9703 36.1139C86.0969 36.2409 86.1579 36.4151 86.1579 36.6315C86.1579 36.7539 86.1345 36.8668 86.0829 36.9704C86.0313 37.0739 85.9609 37.1586 85.8624 37.2292C85.7639 37.2998 85.6513 37.3563 85.5152 37.3939C85.3792 37.4316 85.2244 37.4551 85.0555 37.4551H84.183V34.4902ZM84.4832 35.7891H85.0884C85.1587 35.7891 85.2338 35.7797 85.3088 35.7656C85.3839 35.7515 85.4496 35.7185 85.5105 35.6809C85.5715 35.6385 85.6231 35.5868 85.6607 35.5209C85.6982 35.455 85.717 35.3703 85.717 35.2762C85.717 35.182 85.6982 35.102 85.6607 35.0361C85.6231 34.9703 85.5715 34.9185 85.5105 34.8761C85.4449 34.8338 85.3698 34.8055 85.2854 34.7867C85.2009 34.7679 85.1071 34.7585 85.0086 34.7585H84.4879V35.7985L84.4832 35.7891ZM84.4832 37.1963H85.0414C85.1493 37.1963 85.2525 37.1869 85.3511 37.1633C85.4496 37.1398 85.534 37.1069 85.6091 37.0645C85.6841 37.0174 85.7404 36.9563 85.7873 36.8857C85.8342 36.8104 85.853 36.721 85.853 36.6221C85.853 36.4245 85.7873 36.2786 85.656 36.1844C85.5246 36.0903 85.337 36.0386 85.093 36.0386H84.4785V37.1963H84.4832Z" fill="#191744"/>
<path d="M88.0999 37.4563H87.7997V36.1809L86.6926 34.4961H87.0679L87.9592 35.9315L88.8552 34.4961H89.207L88.0999 36.1809V37.4563Z" fill="#191744"/>
<path d="M99.9546 37.4526C99.7013 37.3114 99.4855 37.1044 99.3401 36.8408C99.19 36.582 99.1102 36.2808 99.1102 35.9749C99.1102 35.669 99.19 35.3725 99.3401 35.1137C99.4902 34.8548 99.7013 34.643 99.9546 34.5019C100.227 34.356 100.532 34.2807 100.837 34.2854C101.132 34.2807 101.423 34.3513 101.681 34.5019C101.92 34.6383 102.108 34.8595 102.216 35.1231L101.521 35.5184C101.362 35.2172 101.132 35.0666 100.832 35.0666C100.724 35.0666 100.621 35.0807 100.518 35.1231C100.419 35.1654 100.33 35.2266 100.25 35.3066C100.17 35.396 100.109 35.4996 100.072 35.6125C100.034 35.7255 100.016 35.8478 100.02 35.9702C100.016 36.0925 100.03 36.2149 100.072 36.3278C100.109 36.4408 100.17 36.5443 100.25 36.6337C100.325 36.7138 100.414 36.7796 100.518 36.822C100.616 36.8643 100.724 36.8832 100.832 36.8785C100.977 36.8785 101.118 36.8408 101.24 36.7608C101.362 36.6808 101.46 36.5632 101.521 36.4267L102.211 36.8314C102.098 37.0902 101.911 37.302 101.681 37.4385C101.423 37.5891 101.127 37.6644 100.832 37.6597C100.527 37.6597 100.227 37.5891 99.9499 37.4432L99.9546 37.4526Z" fill="#191744"/>
<path d="M105.72 34.3367L104.336 37.8193C104.195 38.2005 104.022 38.464 103.815 38.6193C103.595 38.7793 103.332 38.8594 103.065 38.8499C102.905 38.8499 102.746 38.8217 102.591 38.7699C102.45 38.7276 102.323 38.6523 102.211 38.5487L102.539 37.8711C102.61 37.9369 102.689 37.9887 102.774 38.0217C102.858 38.0546 102.947 38.0734 103.041 38.0781C103.149 38.0828 103.252 38.0499 103.337 37.984C103.426 37.8993 103.496 37.7911 103.543 37.6687L103.557 37.6358L102.23 34.332H103.149L104.007 36.558L104.875 34.332H105.729L105.72 34.3367Z" fill="#191744"/>
<path d="M106.593 37.4515C106.339 37.3104 106.123 37.1033 105.978 36.8397C105.828 36.5809 105.748 36.2797 105.748 35.9738C105.748 35.6679 105.828 35.3714 105.978 35.1079C106.128 34.849 106.339 34.6373 106.593 34.4961C106.865 34.3502 107.17 34.2749 107.474 34.2796C107.77 34.2702 108.061 34.3455 108.324 34.4961C108.558 34.6326 108.746 34.8537 108.854 35.1173L108.164 35.5126C108.005 35.2114 107.775 35.0608 107.474 35.0608C107.367 35.0608 107.263 35.0749 107.165 35.1173C107.066 35.1596 106.977 35.2208 106.902 35.3008C106.822 35.3902 106.761 35.4938 106.724 35.6067C106.686 35.7197 106.668 35.842 106.672 35.9644C106.668 36.0868 106.682 36.2091 106.724 36.3221C106.761 36.435 106.822 36.5385 106.902 36.628C106.977 36.708 107.066 36.7739 107.17 36.8162C107.268 36.8586 107.376 36.8774 107.484 36.8727C107.629 36.8727 107.77 36.835 107.892 36.755C108.014 36.675 108.112 36.5574 108.173 36.4209L108.863 36.8256C108.755 37.0845 108.567 37.3009 108.338 37.4374C108.08 37.588 107.784 37.6633 107.489 37.6586C107.179 37.6586 106.879 37.588 106.602 37.4374L106.593 37.4515Z" fill="#191744"/>
<path d="M109.909 37.4518C109.66 37.3153 109.449 37.1083 109.308 36.8494C109.163 36.5859 109.088 36.2847 109.093 35.9788C109.093 35.6729 109.163 35.3717 109.308 35.1081C109.454 34.854 109.66 34.6422 109.909 34.5058C110.176 34.3599 110.476 34.2846 110.781 34.2893C111.082 34.2846 111.382 34.3599 111.649 34.5058C111.898 34.6422 112.104 34.8493 112.25 35.1081C112.395 35.3717 112.47 35.6729 112.465 35.9788C112.47 36.2847 112.395 36.5859 112.25 36.8494C112.104 37.1036 111.898 37.3153 111.649 37.4518C111.382 37.5977 111.082 37.673 110.781 37.6683C110.481 37.673 110.181 37.5977 109.909 37.4518ZM111.34 36.6376C111.49 36.4588 111.569 36.2188 111.56 35.9741C111.569 35.7294 111.494 35.494 111.34 35.3105C111.269 35.2305 111.18 35.1646 111.082 35.1223C110.983 35.0799 110.88 35.0611 110.777 35.0658C110.673 35.0658 110.566 35.0799 110.472 35.1223C110.373 35.1646 110.284 35.2258 110.214 35.3105C110.139 35.3999 110.078 35.5035 110.04 35.6164C110.003 35.7294 109.984 35.8517 109.989 35.9694C109.984 36.0917 109.998 36.2141 110.036 36.327C110.073 36.44 110.134 36.5482 110.209 36.6376C110.284 36.7176 110.369 36.7835 110.467 36.8259C110.566 36.8682 110.669 36.8871 110.777 36.8824C110.88 36.8824 110.983 36.8682 111.082 36.8259C111.18 36.7835 111.265 36.7224 111.34 36.6423V36.6376Z" fill="#191744"/>
<path d="M116.176 33.0938V37.6211H115.327V37.2446C115.107 37.5269 114.788 37.6728 114.366 37.6728C114.094 37.6728 113.821 37.607 113.582 37.4658C113.352 37.3293 113.16 37.1222 113.033 36.8728C112.897 36.5998 112.827 36.2892 112.832 35.9786C112.827 35.668 112.897 35.3621 113.033 35.0939C113.16 34.8444 113.352 34.6374 113.587 34.5009C113.826 34.3597 114.098 34.2891 114.37 34.2938C114.764 34.2938 115.069 34.4256 115.29 34.6891V33.0985H116.176V33.0938ZM115.079 36.6422C115.154 36.5528 115.215 36.4492 115.252 36.3363C115.29 36.2233 115.309 36.101 115.304 35.9833C115.309 35.861 115.294 35.7433 115.252 35.6304C115.21 35.5174 115.154 35.4139 115.079 35.3245C114.929 35.1645 114.727 35.075 114.516 35.075C114.305 35.075 114.103 35.1645 113.953 35.3245C113.878 35.4139 113.817 35.5174 113.779 35.6304C113.742 35.7433 113.723 35.8657 113.728 35.9833C113.723 36.1057 113.737 36.2233 113.779 36.3363C113.817 36.4492 113.878 36.5528 113.953 36.6422C114.103 36.8022 114.305 36.8916 114.516 36.8916C114.727 36.8916 114.929 36.8022 115.079 36.6422Z" fill="#191744"/>
<path d="M119.98 36.247H117.654C117.691 36.4447 117.799 36.6141 117.949 36.7271C118.123 36.8494 118.324 36.9106 118.531 36.9059C118.676 36.9059 118.822 36.8824 118.958 36.8306C119.089 36.7741 119.206 36.6941 119.305 36.5859L119.779 37.1365C119.488 37.4942 119.066 37.673 118.517 37.6683C118.198 37.673 117.884 37.6024 117.597 37.4518C117.344 37.32 117.128 37.1083 116.983 36.8494C116.837 36.5859 116.762 36.2847 116.767 35.9788C116.767 35.6729 116.837 35.3717 116.983 35.1081C117.124 34.854 117.325 34.6422 117.569 34.5058C117.827 34.3599 118.113 34.2846 118.409 34.2893C118.695 34.2893 118.972 34.3552 119.225 34.4963C119.464 34.6328 119.666 34.8399 119.797 35.0893C119.938 35.367 120.009 35.6776 119.999 35.9929C119.999 36.0023 119.994 36.087 119.98 36.247ZM117.893 35.1929C117.752 35.3199 117.663 35.4988 117.64 35.6917H119.155C119.131 35.4988 119.042 35.3199 118.901 35.1929C118.761 35.0658 118.582 34.9999 118.4 35.0046C118.217 34.9999 118.034 35.0658 117.893 35.1881V35.1929Z" fill="#191744"/>
<path fill-rule="evenodd" clip-rule="evenodd" d="M96.5162 34.3926L94.3958 33.1455C94.3395 33.1126 94.2692 33.0938 94.2035 33.0938C94.1378 33.0938 94.0721 33.1126 94.0111 33.1455L93.5749 33.3997L96.0799 34.8727V37.0752L95.456 37.4422L93.5796 36.341V35.988C93.6499 35.9221 93.6969 35.8374 93.7156 35.7433C93.7344 35.6492 93.7297 35.5504 93.6922 35.4609C93.6546 35.3715 93.5936 35.2962 93.5186 35.2445C93.4388 35.1927 93.345 35.1645 93.2512 35.1645C93.1574 35.1645 93.0636 35.1974 92.9885 35.2539C92.9134 35.3103 92.8525 35.3856 92.8196 35.4798C92.7868 35.5692 92.7821 35.668 92.8056 35.7621C92.829 35.8563 92.8806 35.941 92.951 36.0022V36.7128L95.456 38.1811L96.5162 37.5599C96.5725 37.5269 96.6241 37.4752 96.6569 37.4187C96.6897 37.3575 96.7085 37.2916 96.7085 37.2258V34.7362C96.7085 34.6656 96.6897 34.5997 96.6569 34.5432C96.6241 34.4821 96.5725 34.435 96.5162 34.4021V34.3926Z" fill="#191744"/>
<path fill-rule="evenodd" clip-rule="evenodd" d="M95.4559 35.941V35.2398L92.9509 33.7715L91.8907 34.3927C91.8344 34.4256 91.7828 34.4774 91.75 34.5339C91.7171 34.5951 91.6984 34.6609 91.6984 34.7268V37.2164C91.6984 37.287 91.7171 37.3529 91.75 37.4093C91.7828 37.4705 91.8297 37.5176 91.8907 37.5505L94.011 38.793C94.0673 38.8259 94.1377 38.8447 94.2034 38.8447C94.2691 38.8447 94.3347 38.8259 94.3957 38.793L94.8273 38.5388L92.327 37.0658V34.8633L92.9509 34.4962L94.8273 35.5975V35.9363C94.7569 36.0022 94.71 36.0869 94.6866 36.181C94.6678 36.2752 94.6725 36.374 94.71 36.4634C94.7429 36.5528 94.8038 36.6281 94.8836 36.6846C94.9633 36.7364 95.0525 36.7646 95.151 36.7646C95.2448 36.7646 95.3386 36.7317 95.4137 36.6799C95.4887 36.6234 95.5497 36.5481 95.5825 36.4587C95.6154 36.3693 95.6201 36.2705 95.5966 36.1763C95.5732 36.0822 95.5216 35.9975 95.4512 35.9363L95.4559 35.941Z" fill="#191744"/>
<path d="M755.502 29.4956H830V30.3159H755.502V29.4956Z" fill="#0969DA"/>
<path d="M826.117 27.0962C824.012 27.0962 822.74 25.6196 822.74 23.3091V23.3022C822.74 21.0259 824.039 19.4673 826.042 19.4673C828.045 19.4673 829.262 20.9575 829.262 23.1587V23.6235H823.957C823.991 25.1479 824.832 26.0366 826.145 26.0366C827.143 26.0366 827.758 25.5649 827.956 25.1206L827.983 25.0591H829.173L829.159 25.1138C828.906 26.1118 827.854 27.0962 826.117 27.0962ZM826.035 20.5269C824.941 20.5269 824.107 21.272 823.978 22.6733H828.052C827.929 21.2173 827.122 20.5269 826.035 20.5269Z" fill="#0969DA"/>
<path d="M817.982 26.9663V19.5972H819.172V20.6909H819.281C819.562 19.9185 820.252 19.4673 821.25 19.4673C821.476 19.4673 821.729 19.4946 821.845 19.5151V20.6704C821.599 20.6294 821.373 20.6021 821.113 20.6021C819.979 20.6021 819.172 21.3198 819.172 22.3999V26.9663H817.982Z" fill="#0969DA"/>
<path d="M812.739 27.0962C810.641 27.0962 809.342 25.647 809.342 23.2886V23.2749C809.342 20.9097 810.641 19.4673 812.739 19.4673C814.838 19.4673 816.137 20.9097 816.137 23.2749V23.2886C816.137 25.647 814.838 27.0962 812.739 27.0962ZM812.739 26.0435C814.134 26.0435 814.92 25.0249 814.92 23.2886V23.2749C814.92 21.5317 814.134 20.52 812.739 20.52C811.345 20.52 810.559 21.5317 810.559 23.2749V23.2886C810.559 25.0249 811.345 26.0435 812.739 26.0435Z" fill="#0969DA"/>
<path d="M797.529 26.9663V19.5972H798.719V20.7183H798.828C799.156 19.9253 799.854 19.4673 800.817 19.4673C801.815 19.4673 802.513 19.9937 802.854 20.7593H802.964C803.36 19.98 804.201 19.4673 805.22 19.4673C806.724 19.4673 807.564 20.3286 807.564 21.8735V26.9663H806.375V22.147C806.375 21.0601 805.876 20.52 804.837 20.52C803.812 20.52 803.135 21.2925 803.135 22.229V26.9663H801.945V21.9624C801.945 21.0874 801.344 20.52 800.414 20.52C799.45 20.52 798.719 21.3608 798.719 22.3999V26.9663H797.529Z" fill="#0969DA"/>
<path d="M785.416 26.9663V19.5972H786.605V20.7046H786.715C787.084 19.9253 787.774 19.4673 788.861 19.4673C790.516 19.4673 791.438 20.4448 791.438 22.1948V26.9663H790.249V22.4819C790.249 21.1558 789.702 20.52 788.526 20.52C787.351 20.52 786.605 21.313 786.605 22.605V26.9663H785.416Z" fill="#0969DA"/>
<path d="M779.947 26.9663V19.5972H781.137V20.6909H781.246C781.526 19.9185 782.217 19.4673 783.215 19.4673C783.44 19.4673 783.693 19.4946 783.81 19.5151V20.6704C783.563 20.6294 783.338 20.6021 783.078 20.6021C781.943 20.6021 781.137 21.3198 781.137 22.3999V26.9663H779.947Z" fill="#0969DA"/>
<path d="M774.246 27.0962C772.845 27.0962 771.785 26.2485 771.785 24.9087V24.895C771.785 23.5825 772.756 22.8237 774.472 22.7212L776.584 22.5913V21.9214C776.584 21.0122 776.03 20.52 774.93 20.52C774.048 20.52 773.467 20.8481 773.275 21.4224L773.269 21.4429H772.079L772.086 21.4019C772.277 20.2466 773.398 19.4673 774.971 19.4673C776.769 19.4673 777.773 20.3901 777.773 21.9214V26.9663H776.584V25.8794H776.475C776.01 26.6655 775.237 27.0962 774.246 27.0962ZM773.002 24.8813C773.002 25.6265 773.638 26.064 774.492 26.064C775.702 26.064 776.584 25.271 776.584 24.2183V23.5483L774.615 23.6714C773.494 23.7397 773.002 24.1362 773.002 24.8677V24.8813Z" fill="#0969DA"/>
<path d="M767.232 27.0962C765.127 27.0962 763.855 25.6196 763.855 23.3091V23.3022C763.855 21.0259 765.154 19.4673 767.157 19.4673C769.16 19.4673 770.377 20.9575 770.377 23.1587V23.6235H765.072C765.106 25.1479 765.947 26.0366 767.26 26.0366C768.258 26.0366 768.873 25.5649 769.071 25.1206L769.099 25.0591H770.288L770.274 25.1138C770.021 26.1118 768.969 27.0962 767.232 27.0962ZM767.15 20.5269C766.057 20.5269 765.223 21.272 765.093 22.6733H769.167C769.044 21.2173 768.237 20.5269 767.15 20.5269Z" fill="#0969DA"/>
<path d="M756.76 26.9663V17.1021H757.99V25.8589H762.748V26.9663H756.76Z" fill="#0969DA"/>
<path d="M749.486 27.0347C749.001 27.0347 748.598 26.6313 748.598 26.146C748.598 25.6538 749.001 25.2573 749.486 25.2573C749.979 25.2573 750.375 25.6538 750.375 26.146C750.375 26.6313 749.979 27.0347 749.486 27.0347Z" fill="#1F2328"/>
<path d="M743.717 27.0962C742.076 27.0962 740.948 26.3032 740.812 25.0864H742.028C742.227 25.7017 742.814 26.105 743.758 26.105C744.749 26.105 745.453 25.6333 745.453 24.9634V24.9497C745.453 24.4507 745.077 24.1021 744.168 23.8833L743.026 23.6099C741.646 23.2817 741.023 22.6802 741.023 21.6206V21.6138C741.023 20.3901 742.199 19.4673 743.765 19.4673C745.31 19.4673 746.383 20.2397 746.547 21.4429H745.378C745.221 20.8618 744.646 20.4585 743.758 20.4585C742.883 20.4585 742.24 20.9097 742.24 21.5591V21.5728C742.24 22.0718 742.609 22.3862 743.478 22.5981L744.612 22.8716C746 23.2065 746.67 23.8081 746.67 24.8608V24.8745C746.67 26.187 745.392 27.0962 743.717 27.0962Z" fill="#1F2328"/>
<path d="M737.715 26.9663V16.6714H738.904V26.9663H737.715Z" fill="#1F2328"/>
<path d="M732.403 27.0962C730.305 27.0962 729.006 25.647 729.006 23.2886V23.2749C729.006 20.9097 730.305 19.4673 732.403 19.4673C734.502 19.4673 735.801 20.9097 735.801 23.2749V23.2886C735.801 25.647 734.502 27.0962 732.403 27.0962ZM732.403 26.0435C733.798 26.0435 734.584 25.0249 734.584 23.2886V23.2749C734.584 21.5317 733.798 20.52 732.403 20.52C731.009 20.52 730.223 21.5317 730.223 23.2749V23.2886C730.223 25.0249 731.009 26.0435 732.403 26.0435Z" fill="#1F2328"/>
<path d="M724.132 27.0962C722.033 27.0962 720.734 25.647 720.734 23.2886V23.2749C720.734 20.9097 722.033 19.4673 724.132 19.4673C726.23 19.4673 727.529 20.9097 727.529 23.2749V23.2886C727.529 25.647 726.23 27.0962 724.132 27.0962ZM724.132 26.0435C725.526 26.0435 726.312 25.0249 726.312 23.2886V23.2749C726.312 21.5317 725.526 20.52 724.132 20.52C722.737 20.52 721.951 21.5317 721.951 23.2749V23.2886C721.951 25.0249 722.737 26.0435 724.132 26.0435Z" fill="#1F2328"/>
<path d="M718.745 27.021C717.228 27.021 716.592 26.4604 716.592 25.0522V20.5815H715.43V19.5972H716.592V17.6899H717.822V19.5972H719.436V20.5815H717.822V24.7515C717.822 25.6196 718.123 25.9683 718.889 25.9683C719.101 25.9683 719.217 25.9614 719.436 25.9409V26.9526C719.203 26.9937 718.978 27.021 718.745 27.021Z" fill="#1F2328"/>
<path d="M705.217 29.5503C705.06 29.5503 704.854 29.5366 704.69 29.5093V28.5317C704.834 28.5591 705.019 28.5659 705.183 28.5659C705.859 28.5659 706.27 28.2583 706.536 27.4106L706.673 26.9731L703.945 19.5972H705.217L707.24 25.6606H707.35L709.366 19.5972H710.617L707.739 27.4175C707.131 29.0718 706.522 29.5503 705.217 29.5503Z" fill="#1F2328"/>
<path d="M702.12 27.021C700.603 27.021 699.967 26.4604 699.967 25.0522V20.5815H698.805V19.5972H699.967V17.6899H701.197V19.5972H702.811V20.5815H701.197V24.7515C701.197 25.6196 701.498 25.9683 702.264 25.9683C702.476 25.9683 702.592 25.9614 702.811 25.9409V26.9526C702.578 26.9937 702.353 27.021 702.12 27.021Z" fill="#1F2328"/>
<path d="M696.672 18.1753C696.221 18.1753 695.852 17.8062 695.852 17.355C695.852 16.9038 696.221 16.5347 696.672 16.5347C697.123 16.5347 697.492 16.9038 697.492 17.355C697.492 17.8062 697.123 18.1753 696.672 18.1753ZM696.07 26.9663V19.5972H697.26V26.9663H696.07Z" fill="#1F2328"/>
<path d="M690.711 26.9663V19.5972H691.9V20.6909H692.01C692.29 19.9185 692.98 19.4673 693.979 19.4673C694.204 19.4673 694.457 19.4946 694.573 19.5151V20.6704C694.327 20.6294 694.102 20.6021 693.842 20.6021C692.707 20.6021 691.9 21.3198 691.9 22.3999V26.9663H690.711Z" fill="#1F2328"/>
<path d="M685.003 27.0962C683.328 27.0962 682.467 26.1118 682.467 24.3687V19.5972H683.656V24.0815C683.656 25.4077 684.135 26.0435 685.311 26.0435C686.609 26.0435 687.3 25.2505 687.3 23.9585V19.5972H688.489V26.9663H687.3V25.8657H687.19C686.828 26.6519 686.083 27.0962 685.003 27.0962Z" fill="#1F2328"/>
<path d="M677.716 27.0962C675.651 27.0962 674.332 25.5991 674.332 23.2612V23.2476C674.332 20.9575 675.645 19.4673 677.709 19.4673C679.5 19.4673 680.573 20.4995 680.792 21.812L680.799 21.853H679.616L679.609 21.8325C679.425 21.1079 678.769 20.52 677.709 20.52C676.383 20.52 675.549 21.5864 675.549 23.2476V23.2612C675.549 24.9565 676.396 26.0435 677.709 26.0435C678.7 26.0435 679.329 25.606 679.603 24.7856L679.616 24.7446L680.792 24.7378L680.778 24.813C680.478 26.146 679.486 27.0962 677.716 27.0962Z" fill="#1F2328"/>
<path d="M669.711 27.0962C667.605 27.0962 666.334 25.6196 666.334 23.3091V23.3022C666.334 21.0259 667.633 19.4673 669.636 19.4673C671.639 19.4673 672.855 20.9575 672.855 23.1587V23.6235H667.551C667.585 25.1479 668.426 26.0366 669.738 26.0366C670.736 26.0366 671.352 25.5649 671.55 25.1206L671.577 25.0591H672.767L672.753 25.1138C672.5 26.1118 671.447 27.0962 669.711 27.0962ZM669.629 20.5269C668.535 20.5269 667.701 21.272 667.571 22.6733H671.646C671.522 21.2173 670.716 20.5269 669.629 20.5269Z" fill="#1F2328"/>
<path d="M661.904 27.0962C660.264 27.0962 659.136 26.3032 658.999 25.0864H660.216C660.414 25.7017 661.002 26.105 661.945 26.105C662.937 26.105 663.641 25.6333 663.641 24.9634V24.9497C663.641 24.4507 663.265 24.1021 662.355 23.8833L661.214 23.6099C659.833 23.2817 659.211 22.6802 659.211 21.6206V21.6138C659.211 20.3901 660.387 19.4673 661.952 19.4673C663.497 19.4673 664.57 20.2397 664.734 21.4429H663.565C663.408 20.8618 662.834 20.4585 661.945 20.4585C661.07 20.4585 660.428 20.9097 660.428 21.5591V21.5728C660.428 22.0718 660.797 22.3862 661.665 22.5981L662.8 22.8716C664.188 23.2065 664.857 23.8081 664.857 24.8608V24.8745C664.857 26.187 663.579 27.0962 661.904 27.0962Z" fill="#1F2328"/>
<path d="M650.105 26.9663V19.5972H651.295V20.6909H651.404C651.685 19.9185 652.375 19.4673 653.373 19.4673C653.599 19.4673 653.852 19.4946 653.968 19.5151V20.6704C653.722 20.6294 653.496 20.6021 653.236 20.6021C652.102 20.6021 651.295 21.3198 651.295 22.3999V26.9663H650.105Z" fill="#1F2328"/>
<path d="M645.115 27.0962C643.01 27.0962 641.738 25.6196 641.738 23.3091V23.3022C641.738 21.0259 643.037 19.4673 645.04 19.4673C647.043 19.4673 648.26 20.9575 648.26 23.1587V23.6235H642.955C642.989 25.1479 643.83 26.0366 645.143 26.0366C646.141 26.0366 646.756 25.5649 646.954 25.1206L646.981 25.0591H648.171L648.157 25.1138C647.904 26.1118 646.852 27.0962 645.115 27.0962ZM645.033 20.5269C643.939 20.5269 643.105 21.272 642.976 22.6733H647.05C646.927 21.2173 646.12 20.5269 645.033 20.5269Z" fill="#1F2328"/>
<path d="M633.562 29.4272V19.5972H634.752V20.7729H634.861C635.312 19.9526 636.133 19.4673 637.158 19.4673C639.024 19.4673 640.248 20.978 640.248 23.2749V23.2886C640.248 25.5991 639.031 27.0962 637.158 27.0962C636.146 27.0962 635.265 26.5903 634.861 25.8042H634.752V29.4272H633.562ZM636.885 26.0435C638.231 26.0435 639.031 25.0044 639.031 23.2886V23.2749C639.031 21.5591 638.231 20.52 636.885 20.52C635.545 20.52 634.725 21.5728 634.725 23.2749V23.2886C634.725 24.9907 635.545 26.0435 636.885 26.0435Z" fill="#1F2328"/>
<path d="M628.319 27.0962C626.221 27.0962 624.922 25.647 624.922 23.2886V23.2749C624.922 20.9097 626.221 19.4673 628.319 19.4673C630.418 19.4673 631.717 20.9097 631.717 23.2749V23.2886C631.717 25.647 630.418 27.0962 628.319 27.0962ZM628.319 26.0435C629.714 26.0435 630.5 25.0249 630.5 23.2886V23.2749C630.5 21.5317 629.714 20.52 628.319 20.52C626.925 20.52 626.139 21.5317 626.139 23.2749V23.2886C626.139 25.0249 626.925 26.0435 628.319 26.0435Z" fill="#1F2328"/>
<path d="M621.818 26.9663V16.6714H623.008V26.9663H621.818Z" fill="#1F2328"/>
<path d="M616.76 27.0962C614.654 27.0962 613.383 25.6196 613.383 23.3091V23.3022C613.383 21.0259 614.682 19.4673 616.685 19.4673C618.688 19.4673 619.904 20.9575 619.904 23.1587V23.6235H614.6C614.634 25.1479 615.475 26.0366 616.787 26.0366C617.785 26.0366 618.4 25.5649 618.599 25.1206L618.626 25.0591H619.815L619.802 25.1138C619.549 26.1118 618.496 27.0962 616.76 27.0962ZM616.678 20.5269C615.584 20.5269 614.75 21.272 614.62 22.6733H618.694C618.571 21.2173 617.765 20.5269 616.678 20.5269Z" fill="#1F2328"/>
<path d="M608.522 26.9663L605.795 19.5972H607.053L609.069 25.6675H609.179L611.195 19.5972H612.453L609.726 26.9663H608.522Z" fill="#1F2328"/>
<path d="M601.584 27.0962C599.479 27.0962 598.207 25.6196 598.207 23.3091V23.3022C598.207 21.0259 599.506 19.4673 601.509 19.4673C603.512 19.4673 604.729 20.9575 604.729 23.1587V23.6235H599.424C599.458 25.1479 600.299 26.0366 601.611 26.0366C602.609 26.0366 603.225 25.5649 603.423 25.1206L603.45 25.0591H604.64L604.626 25.1138C604.373 26.1118 603.32 27.0962 601.584 27.0962ZM601.502 20.5269C600.408 20.5269 599.574 21.272 599.444 22.6733H603.519C603.396 21.2173 602.589 20.5269 601.502 20.5269Z" fill="#1F2328"/>
<path d="M592.697 27.0962C590.831 27.0962 589.607 25.5854 589.607 23.2886V23.2749C589.607 20.9644 590.824 19.4673 592.697 19.4673C593.709 19.4673 594.591 19.9731 594.994 20.7593H595.104V16.6714H596.293V26.9663H595.104V25.7905H594.994C594.543 26.6108 593.723 27.0962 592.697 27.0962ZM592.971 26.0435C594.311 26.0435 595.131 24.9907 595.131 23.2886V23.2749C595.131 21.5728 594.311 20.52 592.971 20.52C591.624 20.52 590.824 21.5591 590.824 23.2749V23.2886C590.824 25.0044 591.624 26.0435 592.971 26.0435Z" fill="#1F2328"/>
<path d="M577.863 26.9663V19.5972H579.053V20.7046H579.162C579.531 19.9253 580.222 19.4673 581.309 19.4673C582.963 19.4673 583.886 20.4448 583.886 22.1948V26.9663H582.696V22.4819C582.696 21.1558 582.149 20.52 580.974 20.52C579.798 20.52 579.053 21.313 579.053 22.605V26.9663H577.863Z" fill="#1F2328"/>
<path d="M572.873 27.0962C570.768 27.0962 569.496 25.6196 569.496 23.3091V23.3022C569.496 21.0259 570.795 19.4673 572.798 19.4673C574.801 19.4673 576.018 20.9575 576.018 23.1587V23.6235H570.713C570.747 25.1479 571.588 26.0366 572.9 26.0366C573.898 26.0366 574.514 25.5649 574.712 25.1206L574.739 25.0591H575.929L575.915 25.1138C575.662 26.1118 574.609 27.0962 572.873 27.0962ZM572.791 20.5269C571.697 20.5269 570.863 21.272 570.733 22.6733H574.808C574.685 21.2173 573.878 20.5269 572.791 20.5269Z" fill="#1F2328"/>
<path d="M561.32 29.4272V19.5972H562.51V20.7729H562.619C563.07 19.9526 563.891 19.4673 564.916 19.4673C566.782 19.4673 568.006 20.978 568.006 23.2749V23.2886C568.006 25.5991 566.789 27.0962 564.916 27.0962C563.904 27.0962 563.022 26.5903 562.619 25.8042H562.51V29.4272H561.32ZM564.643 26.0435C565.989 26.0435 566.789 25.0044 566.789 23.2886V23.2749C566.789 21.5591 565.989 20.52 564.643 20.52C563.303 20.52 562.482 21.5728 562.482 23.2749V23.2886C562.482 24.9907 563.303 26.0435 564.643 26.0435Z" fill="#1F2328"/>
<path d="M556.077 27.0962C553.979 27.0962 552.68 25.647 552.68 23.2886V23.2749C552.68 20.9097 553.979 19.4673 556.077 19.4673C558.176 19.4673 559.475 20.9097 559.475 23.2749V23.2886C559.475 25.647 558.176 27.0962 556.077 27.0962ZM556.077 26.0435C557.472 26.0435 558.258 25.0249 558.258 23.2886V23.2749C558.258 21.5317 557.472 20.52 556.077 20.52C554.683 20.52 553.896 21.5317 553.896 23.2749V23.2886C553.896 25.0249 554.683 26.0435 556.077 26.0435Z" fill="#1F2328"/>
<path d="M542.159 27.1509C540.197 27.1509 538.823 25.9888 538.823 24.3413V24.3276C538.823 23.1313 539.473 22.2222 540.806 21.5659L541.168 21.3882C540.245 20.3628 539.924 19.7612 539.924 19.0845V19.0708C539.924 17.813 540.997 16.8696 542.439 16.8696C543.896 16.8696 544.955 17.7993 544.955 19.0845V19.0981C544.955 20.0688 544.388 20.8071 542.822 21.6411L545.242 24.2251C545.591 23.5005 545.755 22.605 545.755 21.6411V21.4702H546.903V21.6479C546.903 22.9946 546.637 24.1909 546.083 25.1206L547.806 26.9595V26.9663H546.261L545.386 26.0024C544.62 26.7271 543.554 27.1509 542.159 27.1509ZM541.1 19.1528C541.1 19.6655 541.38 20.0894 542.166 20.9438C543.403 20.3013 543.8 19.8022 543.8 19.1392V19.1255C543.8 18.3667 543.246 17.8472 542.446 17.8472C541.66 17.8472 541.1 18.3804 541.1 19.1392V19.1528ZM540.054 24.2593C540.054 25.3599 540.949 26.1118 542.269 26.1118C543.273 26.1118 544.053 25.7563 544.613 25.1616L541.845 22.1333L541.517 22.2905C540.573 22.7417 540.054 23.4321 540.054 24.2456V24.2593Z" fill="#1F2328"/>
<path d="M530.217 27.0962C528.111 27.0962 526.84 25.6196 526.84 23.3091V23.3022C526.84 21.0259 528.139 19.4673 530.142 19.4673C532.145 19.4673 533.361 20.9575 533.361 23.1587V23.6235H528.057C528.091 25.1479 528.932 26.0366 530.244 26.0366C531.242 26.0366 531.857 25.5649 532.056 25.1206L532.083 25.0591H533.272L533.259 25.1138C533.006 26.1118 531.953 27.0962 530.217 27.0962ZM530.135 20.5269C529.041 20.5269 528.207 21.272 528.077 22.6733H532.151C532.028 21.2173 531.222 20.5269 530.135 20.5269Z" fill="#1F2328"/>
<path d="M522.219 27.0962C520.113 27.0962 518.842 25.6196 518.842 23.3091V23.3022C518.842 21.0259 520.141 19.4673 522.144 19.4673C524.146 19.4673 525.363 20.9575 525.363 23.1587V23.6235H520.059C520.093 25.1479 520.934 26.0366 522.246 26.0366C523.244 26.0366 523.859 25.5649 524.058 25.1206L524.085 25.0591H525.274L525.261 25.1138C525.008 26.1118 523.955 27.0962 522.219 27.0962ZM522.137 20.5269C521.043 20.5269 520.209 21.272 520.079 22.6733H524.153C524.03 21.2173 523.224 20.5269 522.137 20.5269Z" fill="#1F2328"/>
<path d="M514.084 26.9663V19.5972H515.273V20.6909H515.383C515.663 19.9185 516.354 19.4673 517.352 19.4673C517.577 19.4673 517.83 19.4946 517.946 19.5151V20.6704C517.7 20.6294 517.475 20.6021 517.215 20.6021C516.08 20.6021 515.273 21.3198 515.273 22.3999V26.9663H514.084Z" fill="#1F2328"/>
<path d="M509.504 26.9663V20.5815H508.28V19.5972H509.504V18.7769C509.504 17.3071 510.242 16.603 511.644 16.603C511.931 16.603 512.19 16.6235 512.437 16.6714V17.6216C512.293 17.5942 512.095 17.5874 511.883 17.5874C511.035 17.5874 510.693 18.0044 510.693 18.811V19.5972H512.368V20.5815H510.693V26.9663H509.504Z" fill="#1F2328"/>
<path d="M499.742 26.9663V19.5972H500.932V20.6909H501.041C501.321 19.9185 502.012 19.4673 503.01 19.4673C503.235 19.4673 503.488 19.4946 503.604 19.5151V20.6704C503.358 20.6294 503.133 20.6021 502.873 20.6021C501.738 20.6021 500.932 21.3198 500.932 22.3999V26.9663H499.742Z" fill="#1F2328"/>
<path d="M494.499 27.0962C492.4 27.0962 491.102 25.647 491.102 23.2886V23.2749C491.102 20.9097 492.4 19.4673 494.499 19.4673C496.598 19.4673 497.896 20.9097 497.896 23.2749V23.2886C497.896 25.647 496.598 27.0962 494.499 27.0962ZM494.499 26.0435C495.894 26.0435 496.68 25.0249 496.68 23.2886V23.2749C496.68 21.5317 495.894 20.52 494.499 20.52C493.104 20.52 492.318 21.5317 492.318 23.2749V23.2886C492.318 25.0249 493.104 26.0435 494.499 26.0435Z" fill="#1F2328"/>
<path d="M487.205 26.9663V20.5815H485.981V19.5972H487.205V18.7769C487.205 17.3071 487.943 16.603 489.345 16.603C489.632 16.603 489.892 16.6235 490.138 16.6714V17.6216C489.994 17.5942 489.796 17.5874 489.584 17.5874C488.736 17.5874 488.395 18.0044 488.395 18.811V19.5972H490.069V20.5815H488.395V26.9663H487.205Z" fill="#1F2328"/>
<path d="M477.84 27.0962C476.814 27.0962 475.994 26.6108 475.543 25.7905H475.434V26.9663H474.244V16.6714H475.434V20.7593H475.543C475.946 19.9731 476.828 19.4673 477.84 19.4673C479.713 19.4673 480.93 20.9644 480.93 23.2749V23.2886C480.93 25.5854 479.706 27.0962 477.84 27.0962ZM477.566 26.0435C478.913 26.0435 479.713 25.0044 479.713 23.2886V23.2749C479.713 21.5591 478.913 20.52 477.566 20.52C476.227 20.52 475.406 21.5728 475.406 23.2749V23.2886C475.406 24.9907 476.227 26.0435 477.566 26.0435Z" fill="#1F2328"/>
<path d="M468.468 27.0962C466.793 27.0962 465.932 26.1118 465.932 24.3687V19.5972H467.121V24.0815C467.121 25.4077 467.6 26.0435 468.775 26.0435C470.074 26.0435 470.765 25.2505 470.765 23.9585V19.5972H471.954V26.9663H470.765V25.8657H470.655C470.293 26.6519 469.548 27.0962 468.468 27.0962Z" fill="#1F2328"/>
<path d="M457.824 26.9663V16.6714H459.014V20.7046H459.123C459.492 19.9253 460.183 19.4673 461.27 19.4673C462.924 19.4673 463.847 20.4448 463.847 22.1948V26.9663H462.657V22.4819C462.657 21.1558 462.11 20.52 460.935 20.52C459.759 20.52 459.014 21.313 459.014 22.605V26.9663H457.824Z" fill="#1F2328"/>
<path d="M446.846 29.5503C446.688 29.5503 446.483 29.5366 446.319 29.5093V28.5317C446.463 28.5591 446.647 28.5659 446.812 28.5659C447.488 28.5659 447.898 28.2583 448.165 27.4106L448.302 26.9731L445.574 19.5972H446.846L448.869 25.6606H448.979L450.995 19.5972H452.246L449.368 27.4175C448.76 29.0718 448.151 29.5503 446.846 29.5503Z" fill="#1F2328"/>
<path d="M443.749 27.021C442.231 27.021 441.596 26.4604 441.596 25.0522V20.5815H440.434V19.5972H441.596V17.6899H442.826V19.5972H444.439V20.5815H442.826V24.7515C442.826 25.6196 443.127 25.9683 443.893 25.9683C444.104 25.9683 444.221 25.9614 444.439 25.9409V26.9526C444.207 26.9937 443.981 27.021 443.749 27.021Z" fill="#1F2328"/>
<path d="M438.301 18.1753C437.85 18.1753 437.48 17.8062 437.48 17.355C437.48 16.9038 437.85 16.5347 438.301 16.5347C438.752 16.5347 439.121 16.9038 439.121 17.355C439.121 17.8062 438.752 18.1753 438.301 18.1753ZM437.699 26.9663V19.5972H438.889V26.9663H437.699Z" fill="#1F2328"/>
<path d="M429.496 26.9663V19.5972H430.686V20.7046H430.795C431.164 19.9253 431.854 19.4673 432.941 19.4673C434.596 19.4673 435.519 20.4448 435.519 22.1948V26.9663H434.329V22.4819C434.329 21.1558 433.782 20.52 432.606 20.52C431.431 20.52 430.686 21.313 430.686 22.605V26.9663H429.496Z" fill="#1F2328"/>
<path d="M423.788 27.0962C422.113 27.0962 421.252 26.1118 421.252 24.3687V19.5972H422.441V24.0815C422.441 25.4077 422.92 26.0435 424.096 26.0435C425.395 26.0435 426.085 25.2505 426.085 23.9585V19.5972H427.274V26.9663H426.085V25.8657H425.976C425.613 26.6519 424.868 27.0962 423.788 27.0962Z" fill="#1F2328"/>
<path d="M409.139 26.9663V19.5972H410.328V20.7183H410.438C410.766 19.9253 411.463 19.4673 412.427 19.4673C413.425 19.4673 414.122 19.9937 414.464 20.7593H414.573C414.97 19.98 415.811 19.4673 416.829 19.4673C418.333 19.4673 419.174 20.3286 419.174 21.8735V26.9663H417.984V22.147C417.984 21.0601 417.485 20.52 416.446 20.52C415.421 20.52 414.744 21.2925 414.744 22.229V26.9663H413.555V21.9624C413.555 21.0874 412.953 20.52 412.023 20.52C411.06 20.52 410.328 21.3608 410.328 22.3999V26.9663H409.139Z" fill="#1F2328"/>
<path d="M396.957 26.9663V19.5972H398.146V20.7183H398.256C398.584 19.9253 399.281 19.4673 400.245 19.4673C401.243 19.4673 401.94 19.9937 402.282 20.7593H402.392C402.788 19.98 403.629 19.4673 404.647 19.4673C406.151 19.4673 406.992 20.3286 406.992 21.8735V26.9663H405.803V22.147C405.803 21.0601 405.304 20.52 404.265 20.52C403.239 20.52 402.562 21.2925 402.562 22.229V26.9663H401.373V21.9624C401.373 21.0874 400.771 20.52 399.842 20.52C398.878 20.52 398.146 21.3608 398.146 22.3999V26.9663H396.957Z" fill="#1F2328"/>
<path d="M391.714 27.0962C389.615 27.0962 388.316 25.647 388.316 23.2886V23.2749C388.316 20.9097 389.615 19.4673 391.714 19.4673C393.812 19.4673 395.111 20.9097 395.111 23.2749V23.2886C395.111 25.647 393.812 27.0962 391.714 27.0962ZM391.714 26.0435C393.108 26.0435 393.895 25.0249 393.895 23.2886V23.2749C393.895 21.5317 393.108 20.52 391.714 20.52C390.319 20.52 389.533 21.5317 389.533 23.2749V23.2886C389.533 25.0249 390.319 26.0435 391.714 26.0435Z" fill="#1F2328"/>
<path d="M383.866 27.0962C381.802 27.0962 380.482 25.5991 380.482 23.2612V23.2476C380.482 20.9575 381.795 19.4673 383.859 19.4673C385.65 19.4673 386.724 20.4995 386.942 21.812L386.949 21.853H385.767L385.76 21.8325C385.575 21.1079 384.919 20.52 383.859 20.52C382.533 20.52 381.699 21.5864 381.699 23.2476V23.2612C381.699 24.9565 382.547 26.0435 383.859 26.0435C384.851 26.0435 385.479 25.606 385.753 24.7856L385.767 24.7446L386.942 24.7378L386.929 24.813C386.628 26.146 385.637 27.0962 383.866 27.0962Z" fill="#1F2328"/>
<path d="M371.924 27.0962C369.818 27.0962 368.547 25.6196 368.547 23.3091V23.3022C368.547 21.0259 369.846 19.4673 371.849 19.4673C373.852 19.4673 375.068 20.9575 375.068 23.1587V23.6235H369.764C369.798 25.1479 370.639 26.0366 371.951 26.0366C372.949 26.0366 373.564 25.5649 373.763 25.1206L373.79 25.0591H374.979L374.966 25.1138C374.713 26.1118 373.66 27.0962 371.924 27.0962ZM371.842 20.5269C370.748 20.5269 369.914 21.272 369.784 22.6733H373.858C373.735 21.2173 372.929 20.5269 371.842 20.5269Z" fill="#1F2328"/>
<path d="M360.74 26.9663V16.6714H361.93V20.7046H362.039C362.408 19.9253 363.099 19.4673 364.186 19.4673C365.84 19.4673 366.763 20.4448 366.763 22.1948V26.9663H365.573V22.4819C365.573 21.1558 365.026 20.52 363.851 20.52C362.675 20.52 361.93 21.313 361.93 22.605V26.9663H360.74Z" fill="#1F2328"/>
<path d="M358.204 27.021C356.687 27.021 356.051 26.4604 356.051 25.0522V20.5815H354.889V19.5972H356.051V17.6899H357.281V19.5972H358.895V20.5815H357.281V24.7515C357.281 25.6196 357.582 25.9683 358.348 25.9683C358.56 25.9683 358.676 25.9614 358.895 25.9409V26.9526C358.662 26.9937 358.437 27.021 358.204 27.021Z" fill="#1F2328"/>
<path d="M347.191 29.4751L347.786 25.5854H349.146L348.073 29.4751H347.191Z" fill="#1F2328"/>
<path d="M342.693 27.0962C341.053 27.0962 339.925 26.3032 339.788 25.0864H341.005C341.203 25.7017 341.791 26.105 342.734 26.105C343.726 26.105 344.43 25.6333 344.43 24.9634V24.9497C344.43 24.4507 344.054 24.1021 343.145 23.8833L342.003 23.6099C340.622 23.2817 340 22.6802 340 21.6206V21.6138C340 20.3901 341.176 19.4673 342.741 19.4673C344.286 19.4673 345.359 20.2397 345.523 21.4429H344.354C344.197 20.8618 343.623 20.4585 342.734 20.4585C341.859 20.4585 341.217 20.9097 341.217 21.5591V21.5728C341.217 22.0718 341.586 22.3862 342.454 22.5981L343.589 22.8716C344.977 23.2065 345.646 23.8081 345.646 24.8608V24.8745C345.646 26.187 344.368 27.0962 342.693 27.0962Z" fill="#1F2328"/>
<path d="M335.174 27.0962C333.068 27.0962 331.797 25.6196 331.797 23.3091V23.3022C331.797 21.0259 333.096 19.4673 335.099 19.4673C337.102 19.4673 338.318 20.9575 338.318 23.1587V23.6235H333.014C333.048 25.1479 333.889 26.0366 335.201 26.0366C336.199 26.0366 336.814 25.5649 337.013 25.1206L337.04 25.0591H338.229L338.216 25.1138C337.963 26.1118 336.91 27.0962 335.174 27.0962ZM335.092 20.5269C333.998 20.5269 333.164 21.272 333.034 22.6733H337.108C336.985 21.2173 336.179 20.5269 335.092 20.5269Z" fill="#1F2328"/>
<path d="M326.937 26.9663L324.209 19.5972H325.467L327.483 25.6675H327.593L329.609 19.5972H330.867L328.14 26.9663H326.937Z" fill="#1F2328"/>
<path d="M322.021 18.1753C321.57 18.1753 321.201 17.8062 321.201 17.355C321.201 16.9038 321.57 16.5347 322.021 16.5347C322.473 16.5347 322.842 16.9038 322.842 17.355C322.842 17.8062 322.473 18.1753 322.021 18.1753ZM321.42 26.9663V19.5972H322.609V26.9663H321.42Z" fill="#1F2328"/>
<path d="M315.896 29.564C314.119 29.564 312.984 28.7642 312.8 27.5542L312.813 27.5474H314.044L314.051 27.5542C314.181 28.1147 314.837 28.5112 315.896 28.5112C317.216 28.5112 318.002 27.8892 318.002 26.8022V25.312H317.893C317.428 26.1255 316.594 26.5835 315.582 26.5835C313.675 26.5835 312.492 25.1069 312.492 23.0425V23.0288C312.492 20.9644 313.682 19.4673 315.609 19.4673C316.648 19.4673 317.455 19.98 317.906 20.814H317.988V19.5972H319.178V26.8638C319.178 28.5112 317.906 29.564 315.896 29.564ZM315.842 25.5308C317.209 25.5308 318.029 24.5054 318.029 23.0425V23.0288C318.029 21.5659 317.202 20.52 315.842 20.52C314.475 20.52 313.709 21.5659 313.709 23.0288V23.0425C313.709 24.5054 314.475 25.5308 315.842 25.5308Z" fill="#1F2328"/>
<path d="M306.162 29.5503C306.005 29.5503 305.8 29.5366 305.636 29.5093V28.5317C305.779 28.5591 305.964 28.5659 306.128 28.5659C306.805 28.5659 307.215 28.2583 307.481 27.4106L307.618 26.9731L304.891 19.5972H306.162L308.186 25.6606H308.295L310.312 19.5972H311.562L308.685 27.4175C308.076 29.0718 307.468 29.5503 306.162 29.5503Z" fill="#1F2328"/>
<path d="M299.634 27.1987C296.954 27.1987 295.279 25.2163 295.279 22.0444V22.0308C295.279 18.8521 296.947 16.8696 299.627 16.8696C301.705 16.8696 303.325 18.1753 303.619 20.0688L303.612 20.0825H302.375L302.368 20.0688C302.04 18.8042 300.987 18.0044 299.627 18.0044C297.733 18.0044 296.544 19.563 296.544 22.0308V22.0444C296.544 24.5122 297.733 26.064 299.634 26.064C301.008 26.064 302.054 25.3599 302.361 24.2251L302.375 24.2114H303.619V24.2251C303.291 26.0298 301.732 27.1987 299.634 27.1987Z" fill="#1F2328"/>
<path d="M286.994 26.9663V20.5815H285.771V19.5972H286.994V18.7769C286.994 17.3071 287.732 16.603 289.134 16.603C289.421 16.603 289.681 16.6235 289.927 16.6714V17.6216C289.783 17.5942 289.585 17.5874 289.373 17.5874C288.525 17.5874 288.184 18.0044 288.184 18.811V19.5972H289.858V20.5815H288.184V26.9663H286.994Z" fill="#1F2328"/>
<path d="M281.259 27.0962C279.16 27.0962 277.861 25.647 277.861 23.2886V23.2749C277.861 20.9097 279.16 19.4673 281.259 19.4673C283.357 19.4673 284.656 20.9097 284.656 23.2749V23.2886C284.656 25.647 283.357 27.0962 281.259 27.0962ZM281.259 26.0435C282.653 26.0435 283.439 25.0249 283.439 23.2886V23.2749C283.439 21.5317 282.653 20.52 281.259 20.52C279.864 20.52 279.078 21.5317 279.078 23.2749V23.2886C279.078 25.0249 279.864 26.0435 281.259 26.0435Z" fill="#1F2328"/>
<path d="M271.825 27.021C270.308 27.021 269.672 26.4604 269.672 25.0522V20.5815H268.51V19.5972H269.672V17.6899H270.902V19.5972H272.516V20.5815H270.902V24.7515C270.902 25.6196 271.203 25.9683 271.969 25.9683C272.181 25.9683 272.297 25.9614 272.516 25.9409V26.9526C272.283 26.9937 272.058 27.021 271.825 27.021Z" fill="#1F2328"/>
<path d="M263.738 26.9663V19.5972H264.928V20.6909H265.037C265.317 19.9185 266.008 19.4673 267.006 19.4673C267.231 19.4673 267.484 19.4946 267.601 19.5151V20.6704C267.354 20.6294 267.129 20.6021 266.869 20.6021C265.734 20.6021 264.928 21.3198 264.928 22.3999V26.9663H263.738Z" fill="#1F2328"/>
<path d="M258.037 27.0962C256.636 27.0962 255.576 26.2485 255.576 24.9087V24.895C255.576 23.5825 256.547 22.8237 258.263 22.7212L260.375 22.5913V21.9214C260.375 21.0122 259.821 20.52 258.721 20.52C257.839 20.52 257.258 20.8481 257.066 21.4224L257.06 21.4429H255.87L255.877 21.4019C256.068 20.2466 257.189 19.4673 258.762 19.4673C260.56 19.4673 261.564 20.3901 261.564 21.9214V26.9663H260.375V25.8794H260.266C259.801 26.6655 259.028 27.0962 258.037 27.0962ZM256.793 24.8813C256.793 25.6265 257.429 26.064 258.283 26.064C259.493 26.064 260.375 25.271 260.375 24.2183V23.5483L258.406 23.6714C257.285 23.7397 256.793 24.1362 256.793 24.8677V24.8813Z" fill="#1F2328"/>
<path d="M247.469 29.4272V19.5972H248.658V20.7729H248.768C249.219 19.9526 250.039 19.4673 251.064 19.4673C252.931 19.4673 254.154 20.978 254.154 23.2749V23.2886C254.154 25.5991 252.938 27.0962 251.064 27.0962C250.053 27.0962 249.171 26.5903 248.768 25.8042H248.658V29.4272H247.469ZM250.791 26.0435C252.138 26.0435 252.938 25.0044 252.938 23.2886V23.2749C252.938 21.5591 252.138 20.52 250.791 20.52C249.451 20.52 248.631 21.5728 248.631 23.2749V23.2886C248.631 24.9907 249.451 26.0435 250.791 26.0435Z" fill="#1F2328"/>
<path d="M238.732 27.0962C237.092 27.0962 235.964 26.3032 235.827 25.0864H237.044C237.242 25.7017 237.83 26.105 238.773 26.105C239.765 26.105 240.469 25.6333 240.469 24.9634V24.9497C240.469 24.4507 240.093 24.1021 239.184 23.8833L238.042 23.6099C236.661 23.2817 236.039 22.6802 236.039 21.6206V21.6138C236.039 20.3901 237.215 19.4673 238.78 19.4673C240.325 19.4673 241.398 20.2397 241.562 21.4429H240.394C240.236 20.8618 239.662 20.4585 238.773 20.4585C237.898 20.4585 237.256 20.9097 237.256 21.5591V21.5728C237.256 22.0718 237.625 22.3862 238.493 22.5981L239.628 22.8716C241.016 23.2065 241.686 23.8081 241.686 24.8608V24.8745C241.686 26.187 240.407 27.0962 238.732 27.0962Z" fill="#1F2328"/>
<path d="M233.373 18.1753C232.922 18.1753 232.553 17.8062 232.553 17.355C232.553 16.9038 232.922 16.5347 233.373 16.5347C233.824 16.5347 234.193 16.9038 234.193 17.355C234.193 17.8062 233.824 18.1753 233.373 18.1753ZM232.771 26.9663V19.5972H233.961V26.9663H232.771Z" fill="#1F2328"/>
<path d="M220.631 26.9663V19.5972H221.82V20.7046H221.93C222.299 19.9253 222.989 19.4673 224.076 19.4673C225.73 19.4673 226.653 20.4448 226.653 22.1948V26.9663H225.464V22.4819C225.464 21.1558 224.917 20.52 223.741 20.52C222.565 20.52 221.82 21.313 221.82 22.605V26.9663H220.631Z" fill="#1F2328"/>
<path d="M215.388 27.0962C213.289 27.0962 211.99 25.647 211.99 23.2886V23.2749C211.99 20.9097 213.289 19.4673 215.388 19.4673C217.486 19.4673 218.785 20.9097 218.785 23.2749V23.2886C218.785 25.647 217.486 27.0962 215.388 27.0962ZM215.388 26.0435C216.782 26.0435 217.568 25.0249 217.568 23.2886V23.2749C217.568 21.5317 216.782 20.52 215.388 20.52C213.993 20.52 213.207 21.5317 213.207 23.2749V23.2886C213.207 25.0249 213.993 26.0435 215.388 26.0435Z" fill="#1F2328"/>
<path d="M200.178 26.9663V19.5972H201.367V20.7183H201.477C201.805 19.9253 202.502 19.4673 203.466 19.4673C204.464 19.4673 205.161 19.9937 205.503 20.7593H205.612C206.009 19.98 206.85 19.4673 207.868 19.4673C209.372 19.4673 210.213 20.3286 210.213 21.8735V26.9663H209.023V22.147C209.023 21.0601 208.524 20.52 207.485 20.52C206.46 20.52 205.783 21.2925 205.783 22.229V26.9663H204.594V21.9624C204.594 21.0874 203.992 20.52 203.062 20.52C202.099 20.52 201.367 21.3608 201.367 22.3999V26.9663H200.178Z" fill="#1F2328"/>
<path d="M197.348 18.1753C196.896 18.1753 196.527 17.8062 196.527 17.355C196.527 16.9038 196.896 16.5347 197.348 16.5347C197.799 16.5347 198.168 16.9038 198.168 17.355C198.168 17.8062 197.799 18.1753 197.348 18.1753ZM196.746 26.9663V19.5972H197.936V26.9663H196.746Z" fill="#1F2328"/>
<path d="M190.819 27.1987C188.14 27.1987 186.465 25.2163 186.465 22.0444V22.0308C186.465 18.8521 188.133 16.8696 190.812 16.8696C192.891 16.8696 194.511 18.1753 194.805 20.0688L194.798 20.0825H193.561L193.554 20.0688C193.226 18.8042 192.173 18.0044 190.812 18.0044C188.919 18.0044 187.729 19.563 187.729 22.0308V22.0444C187.729 24.5122 188.919 26.064 190.819 26.064C192.193 26.064 193.239 25.3599 193.547 24.2251L193.561 24.2114H194.805V24.2251C194.477 26.0298 192.918 27.1987 190.819 27.1987Z" fill="#1F2328"/>
<defs>
<linearGradient id="paint0_linear_48_562" x1="36.4707" y1="-7.73578" x2="49.0325" y2="38.2109" gradientUnits="userSpaceOnUse">
<stop offset="0.075" stop-color="#422AB6"/>
<stop offset="0.82" stop-color="#47FFB9"/>
</linearGradient>
</defs>
</svg>
